<svg xmlns="http://www.w3.org/2000/svg" viewBox="0 0 320 180" role="img" aria-labelledby="title"><title id="title">traditional support</title><defs><linearGradient id="gold" x1="0" x2="1"><stop stop-color="#BC9139"/><stop offset="1" stop-color="#DAB15E"/></linearGradient></defs><g stroke-linecap="round" stroke-linejoin="round"><ellipse cx="155" cy="170" rx="132" ry="4" fill="#D3CDC2" opacity=".5"/><circle cx="126" cy="101" r="58" fill="#D3CDC2" opacity=".24"/><circle cx="244" cy="93" r="46" fill="#D3CDC2" opacity=".18"/><g transform="rotate(-8 125 108)"><path d="M66 57h105q6 0 6 6v68q0 6-6 6H93l-23 17 5-17h-9q-6 0-6-6V63q0-6 6-6Z" fill="#F7F5F0" stroke="#747474" stroke-width="1.6"/><path d="M80 81h65" stroke="#747474" stroke-width="4"/><path d="M80 94h49" stroke="#747474" stroke-width="4"/><path d="M80 107h56" stroke="#747474" stroke-width="4"/></g><g transform="rotate(9 252 70)"><path d="M221 27h64q6 0 6 6v61q0 6-6 6h-8l-14 12-2-12h-40q-6 0-6-6V33q0-6 6-6Z" fill="#F7F5F0" stroke="#747474" stroke-width="1.6"/><path d="M228 48h48" stroke="#747474" stroke-width="4"/><path d="M228 61h42" stroke="#747474" stroke-width="4"/><path d="M228 74h46" stroke="#747474" stroke-width="4"/></g><path d="M174 119h56q6 0 6 6v34h-36l-16 12v-12h-10q-6 0-6-6v-28q0-6 6-6Z" fill="#F7F5F0" stroke="#747474"/><circle cx="184" cy="140" r="3" fill="#747474"/><circle cx="200" cy="140" r="3" fill="#747474"/><circle cx="216" cy="140" r="3" fill="#747474"/><path d="m197 61-10-7m14-3-5-12M43 118l-12-5m12 17-12 2" stroke="#747474" stroke-width="2"/></g></svg>